<svg xmlns="http://www.w3.org/2000/svg" width="32" height="32" viewBox="0 0 24 24"><path fill="rgb(255, 255, 255)" d="M 11.5 10 c -1.4 0.4 -3.1 0.6 -5.1 0.6 c 0.4 -1.7 1.5 -3 3 -3.8 c 0.8 1 1.5 2.1 2.1 3.1 z m 1 1.9 c -0.1 -0.3 -0.3 -0.6 -0.4 -0.8 c -1.6 0.5 -3.6 0.8 -5.8 0.8 l 0 0.1 c 0 1.4 0.5 2.7 1.3 3.7 c 1.3 -1.9 2.9 -3.2 4.9 -3.8 z m -4 4.6 c 1.6 1.2 3.7 1.6 5.6 0.8 c -0.3 -1.5 -0.7 -2.9 -1.2 -4.4 c -1.8 0.5 -3.3 1.7 -4.4 3.5 z m 7.1 -9.1 c -1 -0.8 -2.2 -1.2 -3.5 -1.2 c -0.5 0 -1 0.1 -1.4 0.2 c 0.8 1 1.4 2.1 2 3.2 c 1.2 -0.5 2.2 -1.2 2.9 -2.1 z m 8.5 4.6 c 0 6.6 -5.4 12 -12 12 s -12 -5.4 -12 -12 s 5.4 -12 12 -12 s 12 5.4 12 12 z m -5 0 c 0 -3.9 -3.1 -7 -7 -7 s -7 3.1 -7 7 s 3.1 7 7 7 s 7 -3.1 7 -7 z m -5.8 -1.3 c 0.2 0.3 0.3 0.7 0.4 1 c 1.3 -0.2 2.6 -0.2 4.1 0 c -0.1 -1.3 -0.6 -2.5 -1.4 -3.4 c -0.8 1 -1.9 1.8 -3.2 2.4 z m 0.9 2.1 c 0.5 1.3 0.9 2.7 1.1 4 c 1.3 -0.9 2.2 -2.3 2.5 -3.9 c -1.3 -0.2 -2.5 -0.3 -3.6 -0.1 z"/></svg>